<svg xmlns="http://www.w3.org/2000/svg" viewBox="-44 -44 88 88" width="512" height="512">
<g transform="scale(0.82)" fill="#5257D6">
<g transform="rotate(0.000)"><circle cx="0.00" cy="0.00" r="4.19"></circle>
<path d="M3.10,0.08 L3.07,-1.09 L3.07,-2.23 L3.10,-3.36 L3.16,-4.50 L3.25,-5.63 L3.38,-6.77 L3.53,-7.90 L3.72,-9.03 L3.93,-10.15 L4.18,-11.28 L4.46,-12.39 L4.77,-13.50 L5.11,-14.60 L5.49,-15.72 L1.34,-17.38 L0.82,-16.24 L0.32,-15.07 L-0.14,-13.88 L-0.58,-12.67 L-0.98,-11.45 L-1.35,-10.22 L-1.69,-8.98 L-2.00,-7.72 L-2.27,-6.46 L-2.50,-5.19 L-2.70,-3.91 L-2.87,-2.63 L-3.00,-1.34 L-3.10,-0.09 Z"></path>
<circle cx="0.00" cy="-0.00" r="3.10"></circle>
<path d="M5.60,-17.02 L5.37,-17.87 L5.17,-18.70 L4.99,-19.54 L4.83,-20.38 L4.70,-21.23 L4.59,-22.08 L4.50,-22.93 L4.44,-23.79 L4.40,-24.65 L4.38,-25.51 L4.38,-26.38 L4.41,-27.24 L4.47,-28.11 L4.55,-28.99 L1.36,-29.44 L1.19,-28.52 L1.04,-27.58 L0.91,-26.63 L0.81,-25.67 L0.74,-24.72 L0.69,-23.75 L0.66,-22.79 L0.67,-21.83 L0.70,-20.86 L0.75,-19.90 L0.84,-18.93 L0.94,-17.97 L1.08,-17.01 L1.23,-16.08 Z"></path>
<circle cx="3.42" cy="-16.55" r="2.23"></circle>
<path d="M4.40,-29.92 L4.09,-30.50 L3.80,-31.08 L3.53,-31.66 L3.27,-32.25 L3.03,-32.84 L2.80,-33.44 L2.60,-34.05 L2.40,-34.67 L2.23,-35.29 L2.07,-35.92 L1.93,-36.55 L1.80,-37.19 L1.70,-37.83 L1.60,-38.49 L-0.88,-38.24 L-0.84,-37.54 L-0.77,-36.82 L-0.69,-36.11 L-0.58,-35.39 L-0.46,-34.68 L-0.32,-33.98 L-0.15,-33.27 L0.03,-32.58 L0.23,-31.88 L0.45,-31.19 L0.69,-30.51 L0.95,-29.83 L1.22,-29.16 L1.51,-28.51 Z"></path>
<circle cx="2.95" cy="-29.22" r="1.61"></circle>
<circle cx="0.36" cy="-38.36" r="2.38"></circle>
<path d="M4.22,-28.23 L4.57,-28.71 L4.91,-29.17 L5.27,-29.62 L5.64,-30.05 L6.02,-30.48 L6.41,-30.90 L6.82,-31.31 L7.24,-31.71 L7.67,-32.10 L8.11,-32.47 L8.56,-32.84 L9.02,-33.19 L9.49,-33.53 L9.98,-33.87 L8.66,-35.99 L8.11,-35.68 L7.56,-35.34 L7.01,-34.99 L6.47,-34.63 L5.94,-34.25 L5.42,-33.85 L4.91,-33.44 L4.41,-33.01 L3.93,-32.58 L3.45,-32.12 L2.99,-31.66 L2.54,-31.18 L2.10,-30.69 L1.69,-30.21 Z"></path>
<circle cx="2.95" cy="-29.22" r="1.61"></circle>
<circle cx="9.32" cy="-34.93" r="2.38"></circle>
<path d="M4.80,-14.80 L5.39,-15.32 L5.97,-15.81 L6.57,-16.29 L7.18,-16.75 L7.81,-17.19 L8.44,-17.62 L9.09,-18.03 L9.76,-18.42 L10.43,-18.80 L11.11,-19.15 L11.81,-19.49 L12.51,-19.81 L13.23,-20.11 L13.97,-20.40 L12.98,-23.46 L12.16,-23.24 L11.33,-22.99 L10.51,-22.72 L9.69,-22.43 L8.88,-22.11 L8.08,-21.77 L7.28,-21.41 L6.50,-21.03 L5.72,-20.63 L4.96,-20.20 L4.20,-19.75 L3.46,-19.28 L2.73,-18.79 L2.03,-18.30 Z"></path>
<circle cx="3.42" cy="-16.55" r="2.23"></circle>
<path d="M14.74,-20.94 L15.09,-21.43 L15.43,-21.88 L15.79,-22.33 L16.16,-22.77 L16.54,-23.20 L16.93,-23.62 L17.34,-24.03 L17.76,-24.43 L18.19,-24.81 L18.63,-25.19 L19.08,-25.55 L19.54,-25.90 L20.01,-26.24 L20.50,-26.58 L19.18,-28.71 L18.63,-28.39 L18.08,-28.06 L17.53,-27.71 L16.99,-27.34 L16.46,-26.96 L15.94,-26.56 L15.43,-26.15 L14.93,-25.73 L14.45,-25.29 L13.97,-24.84 L13.51,-24.37 L13.06,-23.90 L12.62,-23.41 L12.21,-22.92 Z"></path>
<circle cx="13.47" cy="-21.93" r="1.61"></circle>
<circle cx="19.84" cy="-27.64" r="2.38"></circle>
<path d="M13.14,-20.36 L13.67,-20.27 L14.17,-20.18 L14.67,-20.07 L15.17,-19.95 L15.66,-19.81 L16.16,-19.66 L16.64,-19.50 L17.13,-19.33 L17.61,-19.14 L18.08,-18.93 L18.55,-18.72 L19.02,-18.49 L19.48,-18.25 L19.95,-17.98 L21.28,-20.10 L20.81,-20.42 L20.31,-20.75 L19.81,-21.05 L19.30,-21.35 L18.78,-21.63 L18.25,-21.90 L17.72,-22.15 L17.17,-22.39 L16.62,-22.61 L16.07,-22.82 L15.50,-23.02 L14.94,-23.20 L14.36,-23.36 L13.81,-23.50 Z"></path>
<circle cx="13.47" cy="-21.93" r="1.61"></circle>
<circle cx="20.61" cy="-19.04" r="2.38"></circle></g>
<g transform="rotate(72.000)"><circle cx="0.00" cy="0.00" r="4.19"></circle>
<path d="M3.10,0.08 L3.07,-1.09 L3.07,-2.23 L3.10,-3.36 L3.16,-4.50 L3.25,-5.63 L3.38,-6.77 L3.53,-7.90 L3.72,-9.03 L3.93,-10.15 L4.18,-11.28 L4.46,-12.39 L4.77,-13.50 L5.11,-14.60 L5.49,-15.72 L1.34,-17.38 L0.82,-16.24 L0.32,-15.07 L-0.14,-13.88 L-0.58,-12.67 L-0.98,-11.45 L-1.35,-10.22 L-1.69,-8.98 L-2.00,-7.72 L-2.27,-6.46 L-2.50,-5.19 L-2.70,-3.91 L-2.87,-2.63 L-3.00,-1.34 L-3.10,-0.09 Z"></path>
<circle cx="0.00" cy="-0.00" r="3.10"></circle>
<path d="M5.60,-17.02 L5.37,-17.87 L5.17,-18.70 L4.99,-19.54 L4.83,-20.38 L4.70,-21.23 L4.59,-22.08 L4.50,-22.93 L4.44,-23.79 L4.40,-24.65 L4.38,-25.51 L4.38,-26.38 L4.41,-27.24 L4.47,-28.11 L4.55,-28.99 L1.36,-29.44 L1.19,-28.52 L1.04,-27.58 L0.91,-26.63 L0.81,-25.67 L0.74,-24.72 L0.69,-23.75 L0.66,-22.79 L0.67,-21.83 L0.70,-20.86 L0.75,-19.90 L0.84,-18.93 L0.94,-17.97 L1.08,-17.01 L1.23,-16.08 Z"></path>
<circle cx="3.42" cy="-16.55" r="2.23"></circle>
<path d="M4.40,-29.92 L4.09,-30.50 L3.80,-31.08 L3.53,-31.66 L3.27,-32.25 L3.03,-32.84 L2.80,-33.44 L2.60,-34.05 L2.40,-34.67 L2.23,-35.29 L2.07,-35.92 L1.93,-36.55 L1.80,-37.19 L1.70,-37.83 L1.60,-38.49 L-0.88,-38.24 L-0.84,-37.54 L-0.77,-36.82 L-0.69,-36.11 L-0.58,-35.39 L-0.46,-34.68 L-0.32,-33.98 L-0.15,-33.27 L0.03,-32.58 L0.23,-31.88 L0.45,-31.19 L0.69,-30.51 L0.95,-29.83 L1.22,-29.16 L1.51,-28.51 Z"></path>
<circle cx="2.95" cy="-29.22" r="1.61"></circle>
<circle cx="0.36" cy="-38.36" r="2.38"></circle>
<path d="M4.22,-28.23 L4.57,-28.71 L4.91,-29.17 L5.27,-29.62 L5.64,-30.05 L6.02,-30.48 L6.41,-30.90 L6.82,-31.31 L7.24,-31.71 L7.67,-32.10 L8.11,-32.47 L8.56,-32.84 L9.02,-33.19 L9.49,-33.53 L9.98,-33.87 L8.66,-35.99 L8.11,-35.68 L7.56,-35.34 L7.01,-34.99 L6.47,-34.63 L5.94,-34.25 L5.42,-33.85 L4.91,-33.44 L4.41,-33.01 L3.93,-32.58 L3.45,-32.12 L2.99,-31.66 L2.54,-31.18 L2.10,-30.69 L1.69,-30.21 Z"></path>
<circle cx="2.95" cy="-29.22" r="1.61"></circle>
<circle cx="9.32" cy="-34.93" r="2.38"></circle>
<path d="M4.80,-14.80 L5.39,-15.32 L5.97,-15.81 L6.57,-16.29 L7.18,-16.75 L7.81,-17.19 L8.44,-17.62 L9.09,-18.03 L9.76,-18.42 L10.43,-18.80 L11.11,-19.15 L11.81,-19.49 L12.51,-19.81 L13.23,-20.11 L13.97,-20.40 L12.98,-23.46 L12.16,-23.24 L11.33,-22.99 L10.51,-22.72 L9.69,-22.43 L8.88,-22.11 L8.08,-21.77 L7.28,-21.41 L6.50,-21.03 L5.72,-20.63 L4.96,-20.20 L4.20,-19.75 L3.46,-19.28 L2.73,-18.79 L2.03,-18.30 Z"></path>
<circle cx="3.42" cy="-16.55" r="2.23"></circle>
<path d="M14.74,-20.94 L15.09,-21.43 L15.43,-21.88 L15.79,-22.33 L16.16,-22.77 L16.54,-23.20 L16.93,-23.62 L17.34,-24.03 L17.76,-24.43 L18.19,-24.81 L18.63,-25.19 L19.08,-25.55 L19.54,-25.90 L20.01,-26.24 L20.50,-26.58 L19.18,-28.71 L18.63,-28.39 L18.08,-28.06 L17.53,-27.71 L16.99,-27.34 L16.46,-26.96 L15.94,-26.56 L15.43,-26.15 L14.93,-25.73 L14.45,-25.29 L13.97,-24.84 L13.51,-24.37 L13.06,-23.90 L12.62,-23.41 L12.21,-22.92 Z"></path>
<circle cx="13.47" cy="-21.93" r="1.61"></circle>
<circle cx="19.84" cy="-27.64" r="2.38"></circle>
<path d="M13.14,-20.36 L13.67,-20.27 L14.17,-20.18 L14.67,-20.07 L15.17,-19.95 L15.66,-19.81 L16.16,-19.66 L16.64,-19.50 L17.13,-19.33 L17.61,-19.14 L18.08,-18.93 L18.55,-18.72 L19.02,-18.49 L19.48,-18.25 L19.95,-17.98 L21.28,-20.10 L20.81,-20.42 L20.31,-20.75 L19.81,-21.05 L19.30,-21.35 L18.78,-21.63 L18.25,-21.90 L17.72,-22.15 L17.17,-22.39 L16.62,-22.61 L16.07,-22.82 L15.50,-23.02 L14.94,-23.20 L14.36,-23.36 L13.81,-23.50 Z"></path>
<circle cx="13.47" cy="-21.93" r="1.61"></circle>
<circle cx="20.61" cy="-19.04" r="2.38"></circle></g>
<g transform="rotate(144.000)"><circle cx="0.00" cy="0.00" r="4.19"></circle>
<path d="M3.10,0.08 L3.07,-1.09 L3.07,-2.23 L3.10,-3.36 L3.16,-4.50 L3.25,-5.63 L3.38,-6.77 L3.53,-7.90 L3.72,-9.03 L3.93,-10.15 L4.18,-11.28 L4.46,-12.39 L4.77,-13.50 L5.11,-14.60 L5.49,-15.72 L1.34,-17.38 L0.82,-16.24 L0.32,-15.07 L-0.14,-13.88 L-0.58,-12.67 L-0.98,-11.45 L-1.35,-10.22 L-1.69,-8.98 L-2.00,-7.72 L-2.27,-6.46 L-2.50,-5.19 L-2.70,-3.91 L-2.87,-2.63 L-3.00,-1.34 L-3.10,-0.09 Z"></path>
<circle cx="0.00" cy="-0.00" r="3.10"></circle>
<path d="M5.60,-17.02 L5.37,-17.87 L5.17,-18.70 L4.99,-19.54 L4.83,-20.38 L4.70,-21.23 L4.59,-22.08 L4.50,-22.93 L4.44,-23.79 L4.40,-24.65 L4.38,-25.51 L4.38,-26.38 L4.41,-27.24 L4.47,-28.11 L4.55,-28.99 L1.36,-29.44 L1.19,-28.52 L1.04,-27.58 L0.91,-26.63 L0.81,-25.67 L0.74,-24.72 L0.69,-23.75 L0.66,-22.79 L0.67,-21.83 L0.70,-20.86 L0.75,-19.90 L0.84,-18.93 L0.94,-17.97 L1.08,-17.01 L1.23,-16.08 Z"></path>
<circle cx="3.42" cy="-16.55" r="2.23"></circle>
<path d="M4.40,-29.92 L4.09,-30.50 L3.80,-31.08 L3.53,-31.66 L3.27,-32.25 L3.03,-32.84 L2.80,-33.44 L2.60,-34.05 L2.40,-34.67 L2.23,-35.29 L2.07,-35.92 L1.93,-36.55 L1.80,-37.19 L1.70,-37.83 L1.60,-38.49 L-0.88,-38.24 L-0.84,-37.54 L-0.77,-36.82 L-0.69,-36.11 L-0.58,-35.39 L-0.46,-34.68 L-0.32,-33.98 L-0.15,-33.27 L0.03,-32.58 L0.23,-31.88 L0.45,-31.19 L0.69,-30.51 L0.95,-29.83 L1.22,-29.16 L1.51,-28.51 Z"></path>
<circle cx="2.95" cy="-29.22" r="1.61"></circle>
<circle cx="0.36" cy="-38.36" r="2.38"></circle>
<path d="M4.22,-28.23 L4.57,-28.71 L4.91,-29.17 L5.27,-29.62 L5.64,-30.05 L6.02,-30.48 L6.41,-30.90 L6.82,-31.31 L7.24,-31.71 L7.67,-32.10 L8.11,-32.47 L8.56,-32.84 L9.02,-33.19 L9.49,-33.53 L9.98,-33.87 L8.66,-35.99 L8.11,-35.68 L7.56,-35.34 L7.01,-34.99 L6.47,-34.63 L5.94,-34.25 L5.42,-33.85 L4.91,-33.44 L4.41,-33.01 L3.93,-32.58 L3.45,-32.12 L2.99,-31.66 L2.54,-31.18 L2.10,-30.69 L1.69,-30.21 Z"></path>
<circle cx="2.95" cy="-29.22" r="1.61"></circle>
<circle cx="9.32" cy="-34.93" r="2.38"></circle>
<path d="M4.80,-14.80 L5.39,-15.32 L5.97,-15.81 L6.57,-16.29 L7.18,-16.75 L7.81,-17.19 L8.44,-17.62 L9.09,-18.03 L9.76,-18.42 L10.43,-18.80 L11.11,-19.15 L11.81,-19.49 L12.51,-19.81 L13.23,-20.11 L13.97,-20.40 L12.98,-23.46 L12.16,-23.24 L11.33,-22.99 L10.51,-22.72 L9.69,-22.43 L8.88,-22.11 L8.08,-21.77 L7.28,-21.41 L6.50,-21.03 L5.72,-20.63 L4.96,-20.20 L4.20,-19.75 L3.46,-19.28 L2.73,-18.79 L2.03,-18.30 Z"></path>
<circle cx="3.42" cy="-16.55" r="2.23"></circle>
<path d="M14.74,-20.94 L15.09,-21.43 L15.43,-21.88 L15.79,-22.33 L16.16,-22.77 L16.54,-23.20 L16.93,-23.62 L17.34,-24.03 L17.76,-24.43 L18.19,-24.81 L18.63,-25.19 L19.08,-25.55 L19.54,-25.90 L20.01,-26.24 L20.50,-26.58 L19.18,-28.71 L18.63,-28.39 L18.08,-28.06 L17.53,-27.71 L16.99,-27.34 L16.46,-26.96 L15.94,-26.56 L15.43,-26.15 L14.93,-25.73 L14.45,-25.29 L13.97,-24.84 L13.51,-24.37 L13.06,-23.90 L12.62,-23.41 L12.21,-22.92 Z"></path>
<circle cx="13.47" cy="-21.93" r="1.61"></circle>
<circle cx="19.84" cy="-27.64" r="2.38"></circle>
<path d="M13.14,-20.36 L13.67,-20.27 L14.17,-20.18 L14.67,-20.07 L15.17,-19.95 L15.66,-19.81 L16.16,-19.66 L16.64,-19.50 L17.13,-19.33 L17.61,-19.14 L18.08,-18.93 L18.55,-18.72 L19.02,-18.49 L19.48,-18.25 L19.95,-17.98 L21.28,-20.10 L20.81,-20.42 L20.31,-20.75 L19.81,-21.05 L19.30,-21.35 L18.78,-21.63 L18.25,-21.90 L17.72,-22.15 L17.17,-22.39 L16.62,-22.61 L16.07,-22.82 L15.50,-23.02 L14.94,-23.20 L14.36,-23.36 L13.81,-23.50 Z"></path>
<circle cx="13.47" cy="-21.93" r="1.61"></circle>
<circle cx="20.61" cy="-19.04" r="2.38"></circle></g>
<g transform="rotate(216.000)"><circle cx="0.00" cy="0.00" r="4.19"></circle>
<path d="M3.10,0.08 L3.07,-1.09 L3.07,-2.23 L3.10,-3.36 L3.16,-4.50 L3.25,-5.63 L3.38,-6.77 L3.53,-7.90 L3.72,-9.03 L3.93,-10.15 L4.18,-11.28 L4.46,-12.39 L4.77,-13.50 L5.11,-14.60 L5.49,-15.72 L1.34,-17.38 L0.82,-16.24 L0.32,-15.07 L-0.14,-13.88 L-0.58,-12.67 L-0.98,-11.45 L-1.35,-10.22 L-1.69,-8.98 L-2.00,-7.72 L-2.27,-6.46 L-2.50,-5.19 L-2.70,-3.91 L-2.87,-2.63 L-3.00,-1.34 L-3.10,-0.09 Z"></path>
<circle cx="0.00" cy="-0.00" r="3.10"></circle>
<path d="M5.60,-17.02 L5.37,-17.87 L5.17,-18.70 L4.99,-19.54 L4.83,-20.38 L4.70,-21.23 L4.59,-22.08 L4.50,-22.93 L4.44,-23.79 L4.40,-24.65 L4.38,-25.51 L4.38,-26.38 L4.41,-27.24 L4.47,-28.11 L4.55,-28.99 L1.36,-29.44 L1.19,-28.52 L1.04,-27.58 L0.91,-26.63 L0.81,-25.67 L0.74,-24.72 L0.69,-23.75 L0.66,-22.79 L0.67,-21.83 L0.70,-20.86 L0.75,-19.90 L0.84,-18.93 L0.94,-17.97 L1.08,-17.01 L1.23,-16.08 Z"></path>
<circle cx="3.42" cy="-16.55" r="2.23"></circle>
<path d="M4.40,-29.92 L4.09,-30.50 L3.80,-31.08 L3.53,-31.66 L3.27,-32.25 L3.03,-32.84 L2.80,-33.44 L2.60,-34.05 L2.40,-34.67 L2.23,-35.29 L2.07,-35.92 L1.93,-36.55 L1.80,-37.19 L1.70,-37.83 L1.60,-38.49 L-0.88,-38.24 L-0.84,-37.54 L-0.77,-36.82 L-0.69,-36.11 L-0.58,-35.39 L-0.46,-34.68 L-0.32,-33.98 L-0.15,-33.27 L0.03,-32.58 L0.23,-31.88 L0.45,-31.19 L0.69,-30.51 L0.95,-29.83 L1.22,-29.16 L1.51,-28.51 Z"></path>
<circle cx="2.95" cy="-29.22" r="1.61"></circle>
<circle cx="0.36" cy="-38.36" r="2.38"></circle>
<path d="M4.22,-28.23 L4.57,-28.71 L4.91,-29.17 L5.27,-29.62 L5.64,-30.05 L6.02,-30.48 L6.41,-30.90 L6.82,-31.31 L7.24,-31.71 L7.67,-32.10 L8.11,-32.47 L8.56,-32.84 L9.02,-33.19 L9.49,-33.53 L9.98,-33.87 L8.66,-35.99 L8.11,-35.68 L7.56,-35.34 L7.01,-34.99 L6.47,-34.63 L5.94,-34.25 L5.42,-33.85 L4.91,-33.44 L4.41,-33.01 L3.93,-32.58 L3.45,-32.12 L2.99,-31.66 L2.54,-31.18 L2.10,-30.69 L1.69,-30.21 Z"></path>
<circle cx="2.95" cy="-29.22" r="1.61"></circle>
<circle cx="9.32" cy="-34.93" r="2.38"></circle>
<path d="M4.80,-14.80 L5.39,-15.32 L5.97,-15.81 L6.57,-16.29 L7.18,-16.75 L7.81,-17.19 L8.44,-17.62 L9.09,-18.03 L9.76,-18.42 L10.43,-18.80 L11.11,-19.15 L11.81,-19.49 L12.51,-19.81 L13.23,-20.11 L13.97,-20.40 L12.98,-23.46 L12.16,-23.24 L11.33,-22.99 L10.51,-22.72 L9.69,-22.43 L8.88,-22.11 L8.08,-21.77 L7.28,-21.41 L6.50,-21.03 L5.72,-20.63 L4.96,-20.20 L4.20,-19.75 L3.46,-19.28 L2.73,-18.79 L2.03,-18.30 Z"></path>
<circle cx="3.42" cy="-16.55" r="2.23"></circle>
<path d="M14.74,-20.94 L15.09,-21.43 L15.43,-21.88 L15.79,-22.33 L16.16,-22.77 L16.54,-23.20 L16.93,-23.62 L17.34,-24.03 L17.76,-24.43 L18.19,-24.81 L18.63,-25.19 L19.08,-25.55 L19.54,-25.90 L20.01,-26.24 L20.50,-26.58 L19.18,-28.71 L18.63,-28.39 L18.08,-28.06 L17.53,-27.71 L16.99,-27.34 L16.46,-26.96 L15.94,-26.56 L15.43,-26.15 L14.93,-25.73 L14.45,-25.29 L13.97,-24.84 L13.51,-24.37 L13.06,-23.90 L12.62,-23.41 L12.21,-22.92 Z"></path>
<circle cx="13.47" cy="-21.93" r="1.61"></circle>
<circle cx="19.84" cy="-27.64" r="2.38"></circle>
<path d="M13.14,-20.36 L13.67,-20.27 L14.17,-20.18 L14.67,-20.07 L15.17,-19.95 L15.66,-19.81 L16.16,-19.66 L16.64,-19.50 L17.13,-19.33 L17.61,-19.14 L18.08,-18.93 L18.55,-18.72 L19.02,-18.49 L19.48,-18.25 L19.95,-17.98 L21.28,-20.10 L20.81,-20.42 L20.31,-20.75 L19.81,-21.05 L19.30,-21.35 L18.78,-21.63 L18.25,-21.90 L17.72,-22.15 L17.17,-22.39 L16.62,-22.61 L16.07,-22.82 L15.50,-23.02 L14.94,-23.20 L14.36,-23.36 L13.81,-23.50 Z"></path>
<circle cx="13.47" cy="-21.93" r="1.61"></circle>
<circle cx="20.61" cy="-19.04" r="2.38"></circle></g>
<g transform="rotate(288.000)"><circle cx="0.00" cy="0.00" r="4.19"></circle>
<path d="M3.10,0.08 L3.07,-1.09 L3.07,-2.23 L3.10,-3.36 L3.16,-4.50 L3.25,-5.63 L3.38,-6.77 L3.53,-7.90 L3.72,-9.03 L3.93,-10.15 L4.18,-11.28 L4.46,-12.39 L4.77,-13.50 L5.11,-14.60 L5.49,-15.72 L1.34,-17.38 L0.82,-16.24 L0.32,-15.07 L-0.14,-13.88 L-0.58,-12.67 L-0.98,-11.45 L-1.35,-10.22 L-1.69,-8.98 L-2.00,-7.72 L-2.27,-6.46 L-2.50,-5.19 L-2.70,-3.91 L-2.87,-2.63 L-3.00,-1.34 L-3.10,-0.09 Z"></path>
<circle cx="0.00" cy="-0.00" r="3.10"></circle>
<path d="M5.60,-17.02 L5.37,-17.87 L5.17,-18.70 L4.99,-19.54 L4.83,-20.38 L4.70,-21.23 L4.59,-22.08 L4.50,-22.93 L4.44,-23.79 L4.40,-24.65 L4.38,-25.51 L4.38,-26.38 L4.41,-27.24 L4.47,-28.11 L4.55,-28.99 L1.36,-29.44 L1.19,-28.52 L1.04,-27.58 L0.91,-26.63 L0.81,-25.67 L0.74,-24.72 L0.69,-23.75 L0.66,-22.79 L0.67,-21.83 L0.70,-20.86 L0.75,-19.90 L0.84,-18.93 L0.94,-17.97 L1.08,-17.01 L1.23,-16.08 Z"></path>
<circle cx="3.42" cy="-16.55" r="2.23"></circle>
<path d="M4.40,-29.92 L4.09,-30.50 L3.80,-31.08 L3.53,-31.66 L3.27,-32.25 L3.03,-32.84 L2.80,-33.44 L2.60,-34.05 L2.40,-34.67 L2.23,-35.29 L2.07,-35.92 L1.93,-36.55 L1.80,-37.19 L1.70,-37.83 L1.60,-38.49 L-0.88,-38.24 L-0.84,-37.54 L-0.77,-36.82 L-0.69,-36.11 L-0.58,-35.39 L-0.46,-34.68 L-0.32,-33.98 L-0.15,-33.27 L0.03,-32.58 L0.23,-31.88 L0.45,-31.19 L0.69,-30.51 L0.95,-29.83 L1.22,-29.16 L1.51,-28.51 Z"></path>
<circle cx="2.95" cy="-29.22" r="1.61"></circle>
<circle cx="0.36" cy="-38.36" r="2.38"></circle>
<path d="M4.22,-28.23 L4.57,-28.71 L4.91,-29.17 L5.27,-29.62 L5.64,-30.05 L6.02,-30.48 L6.41,-30.90 L6.82,-31.31 L7.24,-31.71 L7.67,-32.10 L8.11,-32.47 L8.56,-32.84 L9.02,-33.19 L9.49,-33.53 L9.98,-33.87 L8.66,-35.99 L8.11,-35.68 L7.56,-35.34 L7.01,-34.99 L6.47,-34.63 L5.94,-34.25 L5.42,-33.85 L4.91,-33.44 L4.41,-33.01 L3.93,-32.58 L3.45,-32.12 L2.99,-31.66 L2.54,-31.18 L2.10,-30.69 L1.69,-30.21 Z"></path>
<circle cx="2.95" cy="-29.22" r="1.61"></circle>
<circle cx="9.32" cy="-34.93" r="2.38"></circle>
<path d="M4.80,-14.80 L5.39,-15.32 L5.97,-15.81 L6.57,-16.29 L7.18,-16.75 L7.81,-17.19 L8.44,-17.62 L9.09,-18.03 L9.76,-18.42 L10.43,-18.80 L11.11,-19.15 L11.81,-19.49 L12.51,-19.81 L13.23,-20.11 L13.97,-20.40 L12.98,-23.46 L12.16,-23.24 L11.33,-22.99 L10.51,-22.72 L9.69,-22.43 L8.88,-22.11 L8.08,-21.77 L7.28,-21.41 L6.50,-21.03 L5.72,-20.63 L4.96,-20.20 L4.20,-19.75 L3.46,-19.28 L2.73,-18.79 L2.03,-18.30 Z"></path>
<circle cx="3.42" cy="-16.55" r="2.23"></circle>
<path d="M14.74,-20.94 L15.09,-21.43 L15.43,-21.88 L15.79,-22.33 L16.16,-22.77 L16.54,-23.20 L16.93,-23.62 L17.34,-24.03 L17.76,-24.43 L18.19,-24.81 L18.63,-25.19 L19.08,-25.55 L19.54,-25.90 L20.01,-26.24 L20.50,-26.58 L19.18,-28.71 L18.63,-28.39 L18.08,-28.06 L17.53,-27.71 L16.99,-27.34 L16.46,-26.96 L15.94,-26.56 L15.43,-26.15 L14.93,-25.73 L14.45,-25.29 L13.97,-24.84 L13.51,-24.37 L13.06,-23.90 L12.62,-23.41 L12.21,-22.92 Z"></path>
<circle cx="13.47" cy="-21.93" r="1.61"></circle>
<circle cx="19.84" cy="-27.64" r="2.38"></circle>
<path d="M13.14,-20.36 L13.67,-20.27 L14.17,-20.18 L14.67,-20.07 L15.17,-19.95 L15.66,-19.81 L16.16,-19.66 L16.64,-19.50 L17.13,-19.33 L17.61,-19.14 L18.08,-18.93 L18.55,-18.72 L19.02,-18.49 L19.48,-18.25 L19.95,-17.98 L21.28,-20.10 L20.81,-20.42 L20.31,-20.75 L19.81,-21.05 L19.30,-21.35 L18.78,-21.63 L18.25,-21.90 L17.72,-22.15 L17.17,-22.39 L16.62,-22.61 L16.07,-22.82 L15.50,-23.02 L14.94,-23.20 L14.36,-23.36 L13.81,-23.50 Z"></path>
<circle cx="13.47" cy="-21.93" r="1.61"></circle>
<circle cx="20.61" cy="-19.04" r="2.38"></circle></g>
</g>
</svg>